<svg width="202" height="60" viewBox="0 0 202 60" fill="none" xmlns="http://www.w3.org/2000/svg">
<path d="M150.041 59.9062C149.032 59.7913 148.01 59.7189 147.026 59.5165C145.242 59.1467 143.615 58.6221 142.583 57.5528C141.474 56.4035 141.084 55.1268 141.262 53.7877C141.497 52.0188 142.526 50.4499 144.25 49.0782C145.102 48.4012 146.144 47.8765 147.355 47.4993C147.525 47.4468 147.818 47.4143 147.508 47.2244C145.579 46.0527 144.789 44.5287 144.37 42.8897C144.335 42.7548 144.332 42.6174 144.215 42.49C144.002 42.5625 144.015 42.7074 143.955 42.8198C142.976 44.6411 141.689 46.3425 139.8 47.854C136.81 50.25 132.035 49.7528 129.602 48.4636C127.978 47.6042 127.161 46.4175 126.936 45.0833C126.636 43.2995 126.991 41.5306 127.463 39.7743C128.143 37.2434 129.292 34.7875 130.329 32.3141C131.011 30.6926 131.743 29.0787 132.163 27.4173C132.258 27.0425 132.37 26.6602 132.248 26.2755C132.12 25.8832 131.788 25.7808 131.256 25.9757C130.736 26.1656 130.414 26.4779 130.124 26.8002C128.937 28.1068 128.018 29.5009 127.376 30.955C126.394 33.186 125.285 35.3896 124.3 37.6207C123.526 39.3695 122.836 41.1334 122.526 42.9497C122.287 44.3613 122.381 45.7254 123.356 47.0371C124.018 47.9265 123.633 48.636 122.316 49.1207C120.897 49.6429 119.381 49.6379 117.849 49.3706C114.524 48.7884 112.785 47.2844 112.113 45.1583C112.053 44.9659 112.086 44.756 111.873 44.5412C111.638 44.8535 111.431 45.1383 111.216 45.4206C110.577 46.2651 109.772 47.0371 108.868 47.7716C106.642 49.5804 103.694 49.8752 100.531 49.2082C97.7799 48.631 96.4657 47.3144 96.051 45.5305C95.9486 45.0908 95.8861 44.6461 95.8012 44.1864C95.5888 44.2389 95.5788 44.3688 95.5188 44.4662C94.7044 45.7579 93.6201 46.9396 92.1985 47.9865C89.1804 50.205 84.4185 50.0201 81.8552 47.5592C80.1888 45.9603 79.3668 44.1789 79.3443 42.2352C79.3243 40.6037 79.5741 38.9773 79.5841 37.3483C79.5891 36.5638 79.4392 35.7968 79.0745 35.0498C79.022 34.9424 79.0145 34.815 78.7772 34.72C78.5698 35.2022 78.3649 35.6669 78.1701 36.1366C77.3031 38.2103 76.4587 40.2914 75.979 42.4226C75.6817 43.7442 75.4868 45.0708 76.0389 46.3875C76.1663 46.6948 76.4012 46.9796 76.5436 47.2844C76.9259 48.1014 76.6036 48.6685 75.4768 49.1032C74.0627 49.6479 72.5462 49.6354 71.0147 49.3781C67.7118 48.8209 65.7081 47.3269 65.2584 45.1158C65.2384 45.0109 65.1959 44.9084 65.1585 44.786C64.9286 44.851 64.9036 44.9859 64.8262 45.0908C63.9842 46.2176 62.9424 47.2594 61.6257 48.1763C59.8169 49.433 57.1162 49.8752 54.8726 49.2856C53.3286 48.8809 52.2868 48.1563 51.7446 47.1295C51.6697 46.9896 51.5997 46.8497 51.5173 46.6898C51.2725 46.7747 51.215 46.9271 51.1051 47.0471C48.9964 49.3156 44.6143 50.1775 41.0216 49.0283C39.4601 48.5286 38.4807 47.6842 37.7537 46.6898C36.7768 45.3532 36.3121 43.9341 36.1597 42.4675C35.76 38.6075 36.9417 34.9024 38.8105 31.2723C40.1846 28.6065 41.966 26.0631 44.4544 23.7521C45.811 22.4929 47.33 21.3237 49.1963 20.3643C51.0901 19.3924 53.2112 18.8303 55.6596 18.8678C58.178 18.9053 59.8594 19.7097 60.6064 21.2762C60.7463 21.571 60.8787 21.5011 61.1511 21.3687C63.3621 20.3043 65.8106 19.6698 68.5863 19.6298C68.9985 19.6248 69.4007 19.6723 69.7855 19.7647C70.7648 19.9971 71.0896 20.4143 70.7024 21.0464C70.3876 21.5585 69.9754 22.0457 69.6256 22.5504C67.8642 25.0888 66.6775 27.7595 65.4483 30.4178C63.8218 33.9355 62.4028 37.4882 61.0911 41.0584C60.8687 41.6605 60.7238 42.2751 60.8413 42.8947C60.9012 43.2095 60.9637 43.5893 61.4784 43.7042C61.993 43.8191 62.3978 43.5443 62.73 43.3095C63.6944 42.6274 64.339 41.813 64.8862 40.9635C65.8006 39.5444 66.3402 38.0529 66.9073 36.5638C68.2465 33.0386 69.9679 29.5884 71.7092 26.1406C73.4256 22.7453 75.1645 19.3525 76.4811 15.8772C76.9858 14.5456 77.5155 13.2114 77.5529 11.8273C77.5679 11.2927 77.523 10.7655 77.2606 10.2509C76.751 9.2515 77.4705 8.54197 79.0895 8.43704C80.1638 8.36708 81.1681 8.52697 82.1025 8.86925C84.366 9.69872 85.6977 10.9754 86.4297 12.5793C87.0893 14.0309 86.8944 15.4625 86.4747 16.9091C85.4578 20.3993 83.8764 23.7871 82.2649 27.1724C81.6703 28.4216 81.0982 29.6783 80.516 30.93C80.4736 31.0199 80.4111 31.1074 80.4486 31.2248C80.646 31.2248 80.7559 31.1274 80.8883 31.0624C82.5597 30.2379 83.5566 29.1062 84.396 27.8844C85.5103 26.2605 86.3548 24.5641 87.5365 22.9626C88.246 22.0033 88.9231 21.0289 90.1623 20.2894C91.7912 19.3175 93.655 18.6604 95.9011 18.6404C97.7099 18.6229 99.4338 18.8953 100.94 19.5998C101.208 19.7247 101.443 19.8721 101.65 20.037C102.562 20.7666 102.454 21.5511 101.165 21.9558C98.7617 22.7103 97.56 24.0494 96.6081 25.5585C95.8986 26.6827 95.1716 27.8095 94.0698 28.7939C92.0061 30.6377 89.3079 31.9293 85.935 32.5939C85.3979 32.6988 85.4054 32.6963 85.7851 32.9637C87.559 34.2154 88.5958 35.6844 88.8881 37.3858C89.163 38.9723 89.2604 40.5712 89.7601 42.1402C89.8625 42.4625 89.9699 42.7873 90.1873 43.0871C90.7319 43.8416 91.9387 43.984 92.8206 43.3819C93.795 42.7199 94.4145 41.9054 94.9992 41.0834C96.1035 39.5269 96.7006 37.8755 97.2477 36.2041C98.5744 32.1492 100.306 28.1693 102.642 24.3068C103.811 22.3705 106.017 21.2487 109.09 20.8115C109.83 20.7066 110.584 20.7041 111.331 20.7915C113.475 21.0389 114.452 22.0457 113.834 23.4124C113.262 24.679 112.64 25.9332 112.058 27.1974C110.212 31.2148 108.445 35.2472 107.146 39.3595C106.889 40.1715 106.654 40.991 106.564 41.8204C106.509 42.3276 106.592 42.8223 107.039 43.262C107.616 43.8291 108.401 43.9066 109.192 43.4594C110.064 42.9672 110.599 42.3201 111.066 41.6456C112.061 40.2165 112.758 38.7224 113.355 37.2009C114.202 35.0423 115.398 32.9562 116.478 30.8475C117.62 28.6165 118.771 26.3854 119.418 24.0644C119.738 22.9177 119.786 21.7884 119.204 20.6566C118.739 19.7547 119.651 19.0427 121.242 18.9877C122.936 18.9277 124.295 19.4124 125.554 20.087C127.328 21.0389 128.145 22.328 128.655 23.7321C128.677 23.7921 128.7 23.8521 128.74 23.957C128.977 23.8196 129.062 23.6622 129.182 23.5198C130.371 22.1182 131.805 20.844 133.774 19.8621C135.625 18.9377 137.709 18.6379 139.973 19.0052C142.234 19.37 143.358 20.4418 143.855 21.8434C144.237 22.9152 144.182 23.9995 144.012 25.0863C143.625 27.5572 142.478 29.9156 141.487 32.2966C140.255 35.2547 139.076 38.2203 138.041 41.2108C137.889 41.6506 137.824 42.0953 137.879 42.545C137.939 43.0272 138.114 43.5193 138.886 43.6967C139.705 43.8841 140.285 43.5293 140.755 43.1371C141.876 42.2027 142.523 41.1084 143.198 40.0216C144.055 38.6425 144.282 37.1809 144.687 35.7369C145.916 31.3522 148.165 27.2249 152.145 23.5572C153.654 22.1656 155.398 20.9115 157.591 19.9621C159.53 19.1201 161.656 18.7254 164.002 18.9078C166.046 19.0677 167.365 19.8097 168.077 21.0414C168.359 21.5311 168.337 21.5261 169.019 21.2213C171.19 20.2444 173.561 19.6398 176.232 19.6248C176.829 19.6223 177.396 19.7097 177.901 19.9346C178.34 20.132 178.498 20.3993 178.413 20.7366C178.368 20.9165 178.29 21.0913 178.158 21.2512C176.579 23.1425 175.615 25.1912 174.64 27.2324C172.422 31.8769 170.5 36.5763 168.657 41.2908C168.074 42.7748 167.44 44.2514 166.703 45.7079C166.663 45.7854 166.64 45.8678 166.585 46.0052C166.975 45.8828 167.202 45.7054 167.437 45.548C169.221 44.3463 170.7 42.9997 171.872 41.5106C171.999 41.3483 172.017 41.1883 172.014 41.0185C171.959 35.3346 174.308 30.083 178.77 25.2262C180.584 23.2524 182.817 21.5111 185.758 20.1944C188.699 18.8803 191.882 18.4705 195.299 19.2126C197.805 19.7572 199.337 21.0014 200.409 22.5104C201.368 23.8621 201.73 25.3111 201.9 26.7827C201.918 26.9301 201.9 27.0825 202 27.2224V28.9488C201.97 29.0637 201.923 29.1761 201.913 29.2935C201.795 30.8176 201.488 32.3241 200.998 33.8156C199.889 37.2034 198.085 40.4189 195.309 43.3844C193.468 45.3482 191.264 47.112 188.269 48.3737C184.776 49.8428 181.101 49.9777 177.461 48.6785C175.057 47.8216 173.736 46.335 172.904 44.6661C172.776 44.4088 172.666 44.1489 172.509 43.8091C172.237 44.1564 172.027 44.4287 171.812 44.6986C169.898 47.122 167.477 49.2806 164.152 50.9695C163.857 51.1194 163.655 51.2868 163.505 51.5092C162.346 53.2381 161.071 54.9295 159.338 56.451C157.614 57.965 155.515 59.1567 152.649 59.6689C152.017 59.7813 151.363 59.7963 150.731 59.8987H150.044L150.041 59.9062ZM182.08 40.901C182.068 41.2433 182.073 41.5856 182.223 41.9154C182.445 42.4026 182.927 42.53 183.609 42.2876C184.216 42.0703 184.624 41.723 184.998 41.3607C186.28 40.1265 187.202 38.7774 188.024 37.3933C189.708 34.5601 191.192 31.6895 191.862 28.6664C192.039 27.8645 192.194 27.06 192.051 26.248C191.994 25.9232 191.949 25.546 191.364 25.4335C190.792 25.3236 190.375 25.5759 190.003 25.8233C189.356 26.2555 188.913 26.7802 188.491 27.3098C186.058 30.3454 184.379 33.5658 183.072 36.8736C182.55 38.1953 182.14 39.5294 182.08 40.901ZM163.477 27.01C163.477 26.7427 163.487 26.4779 163.472 26.2105C163.467 26.1056 163.42 26.0007 163.375 25.8982C163.163 25.4036 162.625 25.2686 161.951 25.541C161.656 25.6609 161.411 25.8158 161.191 25.9907C160.657 26.4129 160.247 26.8851 159.862 27.3673C157.806 29.9231 156.332 32.6289 155.105 35.3946C154.328 37.1435 153.649 38.9098 153.506 40.7411C153.474 41.1484 153.481 41.5531 153.666 41.9429C153.886 42.4126 154.371 42.53 155.033 42.2876C155.425 42.1452 155.732 41.9379 156.012 41.7155C156.719 41.1509 157.266 40.5188 157.764 39.8717C159.495 37.6181 160.754 35.2447 161.856 32.8337C162.725 30.9325 163.387 29.0012 163.48 27.01H163.477ZM55.8445 26.965C55.8445 26.7627 55.8745 26.5578 55.837 26.3579C55.7745 26.0032 55.777 25.5834 55.1499 25.441C54.5353 25.3011 54.1056 25.5959 53.7184 25.8583C53.1238 26.2605 52.7115 26.7477 52.3118 27.2374C50.2181 29.7957 48.7416 32.5115 47.4924 35.2822C46.7354 36.9586 46.0883 38.6525 45.8784 40.4014C45.8135 40.9435 45.7585 41.4907 46.0458 42.0153C46.2507 42.3901 46.6554 42.4875 47.2176 42.3351C47.5424 42.2477 47.8047 42.1053 48.0395 41.9404C49.0014 41.2708 49.6635 40.4713 50.2631 39.6568C52.2068 37.0185 53.6559 34.2628 54.7802 31.4322C55.3623 29.9656 55.7795 28.4816 55.8445 26.96V26.965ZM147.001 55.8289C147.635 55.8339 148.175 55.6715 148.664 55.4266C149.319 55.0968 149.839 54.6871 150.263 54.2299C151.782 52.5985 152.662 50.7871 153.684 49.0183C153.754 48.8984 153.736 48.8209 153.534 48.7685C152.599 48.5286 151.643 48.3437 150.628 48.4212C148.247 48.6061 146.561 49.453 145.492 50.8246C144.607 51.9564 144.135 53.1531 144.537 54.4323C144.822 55.3392 145.711 55.8314 146.998 55.8264L147.001 55.8289Z" fill="#FC0015"/>
<path d="M27.2811 19.3376C24.7802 20.4094 28.0356 14.1309 28.7876 11.6026C30.7963 6.07614 26.9788 1.36918 21.7572 1.69896C18.242 2.06872 20.1532 3.5053 20.0683 5.42406C20.0258 6.94808 19.4437 8.41212 18.889 9.87617C15.9459 17.5612 12.8579 23.1526 9.55007 30.6877C6.74938 37.0686 5.26784 42.2877 2.10489 42.7399C-0.86819 43.1646 -0.433462 46.7548 1.80259 47.7117C12.3508 52.2313 26.8789 50.1251 33.3572 39.2772C35.4983 35.6945 37.477 31.3148 37.527 27.5747C37.6269 19.9397 32.905 16.9266 27.2811 19.3376ZM25.5597 32.2917C24.373 35.0424 22.9789 37.7432 21.0401 40.3065C20.508 41.011 19.9134 41.6931 19.1339 42.2952C18.8316 42.5276 18.4943 42.7324 18.0571 42.8474C17.5499 42.9823 17.1577 42.8723 16.9353 42.5425C16.7154 42.2153 16.6855 41.8655 16.6905 41.5157C16.7079 39.9517 17.1851 38.4302 17.7723 36.9262C19.0589 33.6183 20.7154 30.3979 23.0239 27.3374C23.4411 26.7852 23.9008 26.2556 24.4404 25.7384C25.957 24.2894 27.5809 24.4567 27.2961 26.9002C27.0712 28.8364 26.3642 30.4304 25.5572 32.2942L25.5597 32.2917Z" fill="#FC0015"/>
<path d="M124.712 0C124.937 0.0449709 125.164 0.0849396 125.389 0.134907C126.214 0.319788 127.158 0.951884 127.525 1.56149C127.493 1.62145 127.433 1.60646 127.385 1.60396C124.725 1.43906 122.301 2.23605 119.99 3.47525C118.861 4.07985 117.789 4.78191 116.735 5.51143C116.492 5.67883 116.54 5.74878 116.742 5.90118C120.45 8.70687 120.038 14.3357 115.963 16.5593C112.143 18.6454 107.331 16.1246 106.829 11.7724C106.364 7.74999 109.517 4.40965 113.524 4.68447C114.334 4.73943 115.106 4.95679 115.825 5.33404C116.035 5.44397 116.143 5.41649 116.298 5.2416C117.619 3.73758 119.063 2.36596 120.767 1.30415C121.809 0.654569 122.906 0.1474 124.15 0.0424683C124.19 0.0399699 124.23 0.0149903 124.267 0C124.415 0 124.562 0 124.712 0ZM109.097 11.6924C109.594 8.99418 110.991 7.11539 113.649 6.27344C112.14 5.57889 110.419 5.7188 109.367 7.12039C108.353 8.47202 108.18 10.6906 109.097 11.6949V11.6924Z" fill="#FC0015"/>
</svg>
