<svg xmlns="http://www.w3.org/2000/svg" width="14" height="26" fill="none" viewBox="0 0 14 26"><path fill="#FC0015" d="M10.212 0c.69 0 1.39.04 2.08.07.45.017.901.083 1.325.127l-.03 4.17h-.333c-.459 0-.913-.004-1.372-.004-.341 0-.687 0-1.032.013-1.106.035-1.92.45-1.976 1.831-.035.993-.061 3.187-.061 3.305h4.599c-.223 1.6-.429 3.139-.652 4.686H8.813l-.088 11.699H3.877l.088-11.716H0l.035-4.656h3.987v-.35c.008-.94 0-1.875.035-2.815.013-.59.048-1.197.153-1.783.266-1.425.93-2.623 2.124-3.48C7.374.345 8.564.031 9.827 0z"/></svg>