<svg width="23" height="24" viewBox="0 0 23 24" fill="none" xmlns="http://www.w3.org/2000/svg">
<path d="M17.613 4.28125C17.613 4.28125 17.6261 4.28125 17.6305 4.28125C18.3867 4.28125 18.9987 4.89762 18.99 5.66263C18.9856 6.41889 18.3649 7.03526 17.5998 7.03526C16.8348 7.02652 16.2316 6.41015 16.2403 5.65389C16.2447 4.89762 16.8567 4.28125 17.613 4.28125Z" fill="#FC0015"/>
<path d="M22.7801 6.04678C22.9505 7.85219 23.0598 16.3721 22.5309 18.3699C21.8227 20.984 20.1135 22.5315 17.4731 22.9512C16.4852 23.1086 13.8186 23.2047 11.152 23.2047C8.48541 23.2047 5.70079 23.1042 4.78279 22.8681C2.18177 22.1949 0.629911 20.5032 0.218995 17.8716C-0.0870068 15.9394 -0.121978 6.95604 0.437568 5.00637C1.1676 2.46656 2.85935 0.975892 5.42977 0.551861C6.59257 0.359517 8.87447 0.293945 11.1739 0.293945C13.3115 0.293945 15.471 0.350774 16.7693 0.425089C18.343 0.508146 19.7812 1.01523 20.9528 2.1387C22.0675 3.20533 22.6358 4.53863 22.7801 6.05115V6.04678ZM20.5768 17.4956C20.9047 15.4804 20.9047 8.12759 20.7167 6.23912C20.5113 4.22388 19.2785 2.89933 17.2851 2.58459C16.2972 2.43596 13.9191 2.37038 11.5542 2.37038C9.18921 2.37038 7.00349 2.43159 6.00242 2.54087C4.00467 2.77256 2.65826 4.00531 2.33915 5.98995C2.01129 8.09699 2.01566 15.9743 2.26046 17.5568C2.51401 19.2048 3.44513 20.3371 5.08879 20.7961C5.9762 21.0452 8.64278 21.1327 11.2525 21.1327C13.6568 21.1327 16.0174 21.0583 16.9048 20.9578C18.9201 20.7349 20.2577 19.4934 20.5768 17.4869" fill="#FC0015"/>
<path d="M11.5065 5.88479C14.7458 5.88479 17.3599 8.5164 17.3337 11.7644C17.3074 15.0036 14.6583 17.6353 11.4104 17.6353C8.16236 17.6353 5.55698 15.0036 5.5832 11.7556C5.60943 8.50766 8.25853 5.87604 11.5065 5.88479ZM11.4235 15.5544C13.5043 15.5544 15.2223 13.8758 15.2572 11.7906C15.2922 9.68358 13.6223 7.96997 11.524 7.95248C11.5109 7.95248 11.5022 7.95248 11.489 7.95248C9.40823 7.95248 7.69024 9.63112 7.65527 11.7163C7.6203 13.8146 9.2902 15.537 11.3885 15.5544C11.4016 15.5544 11.4104 15.5544 11.4235 15.5544Z" fill="#FC0015"/>
</svg>
