<svg xmlns="http://www.w3.org/2000/svg" width="22" height="22" fill="none" viewBox="0 0 22 22"><path fill="#FC0015" d="M3.499.281a2.494 2.494 0 0 1 2.5 2.523 2.54 2.54 0 0 1-2.54 2.522 2.494 2.494 0 0 1-2.5-2.522A2.55 2.55 0 0 1 3.5.28M5.627 7.229l-.11 13.997H1.169l.105-13.997zM16.7 6.887c4.407 0 5.198 2.89 5.168 6.662l-.057 7.677h-4.346l.053-6.802c.013-1.631-.009-3.72-2.234-3.72s-2.618 1.765-2.632 3.597l-.052 6.92H8.246l.105-13.997h4.17l-.013 1.914h.066c.59-1.097 2.015-2.255 4.13-2.255z"/></svg>