<svg xmlns="http://www.w3.org/2000/svg" width="30" height="28" fill="none" viewBox="0 0 30 28"><g stroke="#fff" stroke-linecap="round" stroke-linejoin="round" stroke-width="2.35" clip-path="url(#a)"><path d="M11.25 25.667c.69 0 1.25-.523 1.25-1.167s-.56-1.167-1.25-1.167S10 23.856 10 24.5s.56 1.167 1.25 1.167M25 25.667c.69 0 1.25-.523 1.25-1.167s-.56-1.167-1.25-1.167-1.25.523-1.25 1.167.56 1.167 1.25 1.167M1.25 1.167h5L9.6 16.788c.114.538.427 1.02.884 1.363a2.6 2.6 0 0 0 1.616.516h12.15a2.6 2.6 0 0 0 1.616-.516c.457-.343.77-.825.884-1.363l2-9.788H7.5"/></g><defs><clipPath id="a"><path fill="#fff" d="M0 0h30v28H0z"/></clipPath></defs></svg>