<svg xmlns="http://www.w3.org/2000/svg" width="28" height="30" fill="none" viewBox="0 0 28 30"><path fill="#fff" d="M12.307 26.146c-.41 0-.818-.003-1.228 0-1.697.014-2.901-.786-3.594-2.297-.687-1.498-.38-3.009.963-4.232 2.449-2.23 4.972-4.385 7.462-6.57.985-.865 1.982-1.71 2.943-2.602.494-.457.852-1.002.562-1.744-.302-.769-.913-.99-1.665-.992-.901-.002-1.8-.002-2.702-.012-.79-.008-1.56-.155-1.582-1.13-.024-.98.713-1.174 1.523-1.174.983 0 1.965-.027 2.945.01 1.771.068 3.053.953 3.564 2.512.521 1.585.2 2.98-1.088 4.112-3.257 2.864-6.509 5.735-9.761 8.604-.275.244-.577.47-.806.752-.847 1.041-.38 2.28.963 2.427 1.012.11 2.044.034 3.066.073.766.03 1.586.155 1.594 1.133.007.975-.77 1.13-1.567 1.13zM22.764 19.787c3.892-.285 4.87 1.44 4.886 4.864.014 3.762-1.266 4.98-4.949 4.97-3.68-.008-5.164-1.057-4.883-4.928.036-.487 0-.978.006-1.467.032-2.17 1.277-3.4 3.473-3.436.488-.009.977 0 1.465-.003zm2.87 4.805q0-2.86-2.836-2.86h-.21q-2.943 0-2.943 2.896c0 2.954.02 2.973 2.983 2.973q3.005 0 3.003-3.009z"/><path fill="#fff" stroke="#fff" stroke-miterlimit="10" stroke-width=".95" d="M22.74 25.676c-.616-.042-1.006-.35-1.01-.97-.003-.607.361-.992.968-1.003.606-.01.983.364 1.004.968.021.623-.379.93-.962 1.005Z"/><path stroke="#fff" stroke-miterlimit="10" stroke-width="2.5" d="M2.002 6.187c0-2.33 1.942-4.212 4.315-4.187 2.298.024 4.227 1.995 4.233 4.326.007 2.276-1.988 4.226-4.325 4.224C3.81 10.55 1.998 8.678 2 6.187z"/><circle cx="6.275" cy="6.275" r="1.144" fill="#fff" stroke="#fff"/></svg>