<svg xmlns="http://www.w3.org/2000/svg" width="25" height="18" fill="none" viewBox="0 0 25 18"><path fill="#FC0015" d="M23.64 2.61c.848 2.238.813 10.382-.206 12.533-.28.59-.726.992-1.29 1.298-.8.41-5.433.608-9.97.608-4.18 0-8.276-.166-9.238-.477q-1.338-.44-1.81-1.766C.362 12.642.192 3.59 1.722 1.801A2.96 2.96 0 0 1 3.706.751C5.529.556 9.039.46 12.506.46c4.314 0 8.554.149 9.359.442.852.301 1.455.865 1.77 1.713zM9.454 12.328c2.457-1.281 4.905-2.54 7.383-3.821-2.456-1.29-4.887-2.557-7.322-3.838-.017 2.557-.039 5.088-.057 7.659"/></svg>